<svg width="28" height="25" viewBox="0 0 28 25" fill="none" xmlns="http://www.w3.org/2000/svg">
<g id="Group">
<path id="Vector" d="M7.5752 12.2751C7.5752 11.125 7.85852 10.1417 8.42516 9.32504C8.99181 8.50842 9.76681 7.89186 10.7502 7.47516C11.65 7.0918 12.7585 6.81698 14.0753 6.65003C14.5251 6.60013 15.2585 6.53343 16.2752 6.44996V6.02498C16.2752 4.95837 16.1586 4.24179 15.9252 3.87499C15.5752 3.37481 15.0253 3.12506 14.2751 3.12506H14.0753C13.5252 3.17496 13.0501 3.34997 12.6502 3.64985C12.2502 3.94996 11.9918 4.36644 11.8752 4.89996C11.8085 5.23319 11.642 5.42476 11.3752 5.47489L8.50013 5.12488C8.21681 5.05819 8.07515 4.90824 8.07515 4.67483C8.07515 4.62492 8.08343 4.56651 8.09999 4.50004C8.38331 3.01674 9.07909 1.91679 10.1875 1.19998C11.2958 0.483618 12.5918 0.0834751 14.0753 0H14.7003C16.5999 0 18.0834 0.491675 19.1505 1.47502C19.3174 1.64242 19.4723 1.8219 19.6128 2.01235C19.7541 2.20392 19.8668 2.3749 19.9499 2.52484C20.0333 2.67478 20.1085 2.89164 20.175 3.17474C20.2419 3.45828 20.2916 3.6541 20.3254 3.7622C20.3585 3.87051 20.3836 4.10393 20.4001 4.46245C20.4167 4.82074 20.425 5.03312 20.425 5.09981V11.1499C20.425 11.5831 20.4874 11.979 20.6125 12.3373C20.7376 12.6958 20.8587 12.9541 20.9748 13.1123C21.0914 13.2705 21.2835 13.525 21.55 13.8745C21.65 14.0249 21.6999 14.1583 21.6999 14.2749C21.6999 14.4083 21.6335 14.5244 21.4996 14.6247C20.1166 15.8249 19.3667 16.475 19.2498 16.5751C19.05 16.725 18.8083 16.7416 18.5248 16.625C18.2918 16.4247 18.0877 16.2333 17.9125 16.0498C17.7377 15.8668 17.6126 15.7334 17.5374 15.6499C17.4626 15.5669 17.3416 15.4042 17.1751 15.1625C17.0086 14.9208 16.8913 14.7581 16.825 14.6751C15.8918 15.6917 14.9752 16.3251 14.0753 16.5751C13.5084 16.7416 12.8084 16.825 11.9752 16.825C10.6917 16.825 9.63768 16.4289 8.81277 15.6374C7.98765 14.8456 7.5752 13.7248 7.5752 12.2751ZM11.8752 11.7749C11.8752 12.425 12.0379 12.9458 12.3626 13.3374C12.6878 13.7291 13.1251 13.9249 13.6751 13.9249C13.7253 13.9249 13.796 13.9166 13.8877 13.9001C13.9791 13.883 14.0417 13.8748 14.0753 13.8748C14.7751 13.6917 15.3167 13.2419 15.7 12.5251C15.8835 12.2084 16.0209 11.8626 16.1127 11.4876C16.2045 11.1127 16.2544 10.8083 16.2626 10.5749C16.2709 10.3417 16.2754 9.95837 16.2754 9.42507V8.80002C15.3086 8.80002 14.5755 8.86671 14.0755 9.00009C12.6083 9.41657 11.8752 10.3415 11.8752 11.7749Z" fill="black"/>
<path id="Vector_2" d="M22.3747 19.825C22.4082 19.7581 22.4582 19.6916 22.5251 19.6247C22.9415 19.3414 23.3415 19.15 23.7248 19.05C24.3582 18.8835 24.9749 18.7917 25.5747 18.775C25.7417 18.7579 25.8999 18.7667 26.0498 18.7998C26.8 18.8663 27.2496 18.9916 27.4 19.1749C27.4664 19.2749 27.4996 19.4248 27.4996 19.6247V19.7999C27.4996 20.3829 27.3413 21.0706 27.0249 21.8622C26.708 22.6537 26.2664 23.2916 25.6996 23.775C25.6166 23.8414 25.5414 23.8745 25.4749 23.8745C25.4413 23.8745 25.408 23.8663 25.3749 23.8497C25.2748 23.7998 25.2498 23.708 25.2997 23.5747C25.9164 22.1247 26.2246 21.1165 26.2246 20.5494C26.2246 20.3663 26.1915 20.233 26.125 20.1495C25.9581 19.9496 25.4917 19.8496 24.725 19.8496C24.4412 19.8496 24.1082 19.8662 23.7248 19.8995C23.3083 19.9499 22.925 19.9996 22.5747 20.0499C22.4747 20.0499 22.4082 20.0329 22.3745 19.9996C22.3413 19.9664 22.3328 19.9331 22.3496 19.8995C22.3496 19.8832 22.3579 19.8581 22.3747 19.825ZM0.049906 19.4002C0.133381 19.2669 0.266538 19.2586 0.450049 19.3749C4.61664 21.7917 9.15003 23.0002 14.0498 23.0002C17.3167 23.0002 20.5416 22.3917 23.7248 21.1749C23.8078 21.1418 23.9289 21.0919 24.0871 21.025C24.2458 20.9585 24.3582 20.9084 24.4246 20.875C24.6746 20.775 24.8704 20.8251 25.0121 21.025C25.1542 21.2253 25.1083 21.4083 24.8749 21.5748C24.5746 21.7917 24.1912 22.0417 23.7248 22.325C22.2916 23.1752 20.6913 23.8334 18.9247 24.3002C17.1583 24.767 15.433 25 13.7499 25C11.1499 25 8.69148 24.5459 6.37499 23.6375C4.05828 22.7292 1.98326 21.4497 0.149942 19.8002C0.049906 19.7167 0 19.6332 0 19.55C0 19.4998 0.0165607 19.4499 0.049906 19.4002Z" fill="#FF9900"/>
</g>
</svg>
