<svg width="24" height="24" viewBox="0 0 24 24" fill="none" xmlns="http://www.w3.org/2000/svg">
<g id="vuesax/bold/bag-2">
<g id="Group">
<path id="Vector" d="M19.9602 8.95999C19.2902 8.21999 18.2802 7.78999 16.8802 7.63999V6.87999C16.8802 5.50999 16.3002 4.18999 15.2802 3.26999C14.2502 2.32999 12.9102 1.88999 11.5202 2.01999C9.13023 2.24999 7.12023 4.55999 7.12023 7.05999V7.63999C5.72023 7.78999 4.71023 8.21999 4.04023 8.95999C3.07023 10.04 3.10023 11.48 3.21023 12.48L3.91023 18.05C4.12023 20 4.91023 22 9.21023 22H14.7902C19.0902 22 19.8802 20 20.0902 18.06L20.7902 12.47C20.9002 11.48 20.9202 10.04 19.9602 8.95999ZM11.6602 3.40999C12.6602 3.31999 13.6102 3.62999 14.3502 4.29999C15.0802 4.95999 15.4902 5.89999 15.4902 6.87999V7.57999H8.51023V7.05999C8.51023 5.27999 9.98023 3.56999 11.6602 3.40999ZM8.42023 13.15H8.41023C7.86023 13.15 7.41023 12.7 7.41023 12.15C7.41023 11.6 7.86023 11.15 8.41023 11.15C8.97023 11.15 9.42023 11.6 9.42023 12.15C9.42023 12.7 8.97023 13.15 8.42023 13.15ZM15.4202 13.15H15.4102C14.8602 13.15 14.4102 12.7 14.4102 12.15C14.4102 11.6 14.8602 11.15 15.4102 11.15C15.9702 11.15 16.4202 11.6 16.4202 12.15C16.4202 12.7 15.9702 13.15 15.4202 13.15Z" fill="rgb(107 114 128)"/>
</g>
</g>
</svg>