<svg width="31" height="24" viewBox="0 0 31 24" fill="none" xmlns="http://www.w3.org/2000/svg">
<path id="Vector" d="M19.5183 16.6773C19.5183 17.0659 19.1938 17.3864 18.8002 17.3864H12.1998C11.8062 17.3864 11.4817 17.0659 11.4817 16.6773V13.6773V10.3227V7.32273C11.4817 6.93409 11.8062 6.61364 12.1998 6.61364H18.8002C19.1938 6.61364 19.5183 6.92727 19.5183 7.32273V10.3227V13.6773V16.6773ZM9.98352 7.31591V10.3159C9.98352 10.8205 9.65212 11.25 9.26548 11.25H0V4.82045C0 4.77954 0.00690465 4.74545 0.00690465 4.70455H9.26548C9.65212 4.70455 9.98352 5.13409 9.98352 5.63864V7.31591ZM0 19.1727V12.7432H9.26548C9.65212 12.7432 9.98352 13.1727 9.98352 13.6773V16.6773V18.3545C9.98352 18.8591 9.65212 19.2886 9.26548 19.2886H0.00690465C0.00690465 19.2477 0 19.2136 0 19.1727ZM31 4.82045V11.25H21.7345C21.3479 11.25 21.0165 10.8205 21.0165 10.3159V7.31591V5.63864C21.0165 5.13409 21.3479 4.70455 21.7345 4.70455H30.9931C30.9931 4.74545 31 4.78636 31 4.82045ZM21.0234 16.6773V13.6773C21.0234 13.1727 21.3548 12.7432 21.7414 12.7432H31V19.1727C31 19.2136 30.9931 19.2477 30.9931 19.2886H21.7345C21.3479 19.2886 21.0165 18.8591 21.0165 18.3545V16.6773H21.0234ZM4.8882 0H26.1118C28.2383 0 30.0472 1.35 30.7169 3.225H21.7345C20.6298 3.225 19.7185 4.11136 19.5459 5.26364C19.3111 5.18182 19.0626 5.12727 18.7933 5.12727H12.1929C11.9305 5.12727 11.6751 5.18182 11.4403 5.26364C11.2815 4.11136 10.3702 3.225 9.26548 3.225H0.283074C0.952784 1.35 2.76169 0 4.8882 0ZM26.1118 24H4.8882C2.76169 24 0.952784 22.65 0.283074 20.775H9.26548C10.3702 20.775 11.2815 19.8886 11.4541 18.7364C11.6889 18.8182 11.9374 18.8727 12.2067 18.8727H18.8071C19.0695 18.8727 19.3249 18.8182 19.5597 18.7364C19.7254 19.8886 20.6367 20.775 21.7483 20.775H30.7307C30.0472 22.65 28.2383 24 26.1118 24Z" fill="#D17842"/>
</svg>
