<svg width="25" height="20" viewBox="0 0 25 20" fill="none" xmlns="http://www.w3.org/2000/svg">
<g id="Group">
<path id="Vector" d="M23.75 0H1.25C0.5 0 0 0.5 0 1.25V18.75C0 19.5 0.5 20 1.25 20H23.75C24.5 20 25 19.5 25 18.75V12.5H16.25C14.875 12.5 13.75 11.375 13.75 10C13.75 8.625 14.875 7.5 16.25 7.5H25V1.25C25 0.5 24.5 0 23.75 0Z" fill="#D17842"/>
<path id="Vector_2" d="M16.25 11.25C16.9404 11.25 17.5 10.6904 17.5 10C17.5 9.30964 16.9404 8.75 16.25 8.75C15.5596 8.75 15 9.30964 15 10C15 10.6904 15.5596 11.25 16.25 11.25Z" fill="#D17842"/>
</g>
</svg>
